<?xml version="1.0" encoding="UTF-8"?>
<svg version="1.1" xmlns="http://www.w3.org/2000/svg" width="512" height="512">
<path d="M0 0 C11.9394738 9.19539382 17.76034023 20.97693999 24.12890625 34.3515625 C24.73684437 35.62005806 25.34500304 36.88844793 25.95336914 38.15673828 C31.29948606 49.32583977 36.52386437 60.55135482 41.70703125 71.796875 C43.40097336 75.47079281 45.11026077 79.13515623 46.86328125 82.78125 C47.19078369 83.46590332 47.51828613 84.15055664 47.85571289 84.85595703 C48.66403223 86.53938806 49.47998062 88.21915082 50.296875 89.8984375 C55.40825526 102.29156872 55.4462453 117.49207589 50.88671875 130.0546875 C43.08672099 147.31622101 30.14135548 156.00783691 13.56640625 163.9765625 C13.99953125 164.92015625 13.99953125 164.92015625 14.44140625 165.8828125 C18.32461729 174.83577129 18.53733311 180.27199787 15.125 189.38671875 C9.59962631 198.5679788 0.72553182 202.25839784 -8.62109375 206.6015625 C-10.10670327 207.3054104 -11.59172135 208.01050788 -13.07617188 208.71679688 C-17.51891873 210.82443151 -21.97440167 212.90399301 -26.43359375 214.9765625 C-27.06896057 215.27236206 -27.70432739 215.56816162 -28.35894775 215.8729248 C-33.51191794 218.27181347 -38.66823943 220.66334502 -43.83081055 223.04150391 C-52.92202431 227.23903393 -61.93347249 231.58793269 -70.93359375 235.9765625 C-82.49395926 241.61291698 -94.09395754 247.14356122 -105.78295898 252.50878906 C-110.89336096 254.85571692 -115.98075005 257.22485091 -121.0078125 259.74609375 C-139.37028523 268.92557997 -139.37028523 268.92557997 -150.18359375 265.8515625 C-151.61894979 265.27076781 -153.03770896 264.64669315 -154.43359375 263.9765625 C-155.06136719 263.68136719 -155.68914062 263.38617188 -156.3359375 263.08203125 C-163.97641116 258.61812213 -167.01661668 248.91930419 -169.29296875 240.828125 C-172.5380877 229.69142672 -175.80343702 221.79349882 -186.20458984 215.89770508 C-190.75190577 213.63199118 -195.34910673 211.52357494 -200.01171875 209.50634766 C-205.36349841 207.11377835 -210.43951635 204.26264963 -215.55859375 201.4140625 C-217.53646416 200.33875812 -219.51563202 199.26583676 -221.49609375 198.1953125 C-222.47320312 197.66550781 -223.4503125 197.13570312 -224.45703125 196.58984375 C-227.46941239 194.95714899 -230.48262303 193.32599524 -233.49609375 191.6953125 C-239.47689232 188.45873546 -245.45598144 185.21902039 -251.43359375 181.9765625 C-252.4704834 181.41420898 -253.50737305 180.85185547 -254.57568359 180.27246094 C-257.63342401 178.61304564 -260.68995876 176.95143231 -263.74609375 175.2890625 C-264.67760254 174.78366943 -265.60911133 174.27827637 -266.56884766 173.75756836 C-267.42784668 173.28971924 -268.2868457 172.82187012 -269.171875 172.33984375 C-269.92509033 171.93032471 -270.67830566 171.52080566 -271.4543457 171.09887695 C-273.15851048 170.13254595 -274.80354517 169.06326155 -276.43359375 167.9765625 C-279.99295825 168.33796905 -282.85359881 169.49672597 -286.03686523 171.07788086 C-286.91805527 171.51180649 -287.7992453 171.94573212 -288.70713806 172.39280701 C-290.11667503 173.09748863 -290.11667503 173.09748863 -291.5546875 173.81640625 C-292.53220474 174.29856094 -293.50972198 174.78071564 -294.51686096 175.27748108 C-297.63771054 176.81747586 -300.75467957 178.36511399 -303.87109375 179.9140625 C-306.98427002 181.45873889 -310.0982767 183.00164417 -313.21461487 184.53993225 C-315.15203952 185.49651567 -317.0876237 186.45683826 -319.02110291 187.42137146 C-327.66932057 191.69567148 -333.78490565 193.72306094 -343.43359375 191.9765625 C-347.05859375 190.6640625 -347.05859375 190.6640625 -349.43359375 188.9765625 C-350.69551052 185.7819035 -350.32752663 183.80757886 -349.22460938 180.61499023 C-348.93204758 179.75147446 -348.63948578 178.88795868 -348.33805847 177.99827576 C-347.84394218 176.5934066 -347.84394218 176.5934066 -347.33984375 175.16015625 C-347.00161087 174.17213516 -346.66337799 173.18411407 -346.31489563 172.16615295 C-345.19791511 168.91187241 -344.06588393 165.6630446 -342.93359375 162.4140625 C-342.15628031 160.15915212 -341.37984034 157.90394046 -340.60424805 155.6484375 C-338.22888748 148.75262082 -335.83303058 141.864032 -333.43359375 134.9765625 C-332.70518562 132.88299449 -331.97683088 130.7894079 -331.24853516 128.69580078 C-328.65100094 121.23265826 -326.05295638 113.76972356 -323.43359375 106.31420898 C-319.66125615 95.56900745 -316.00195103 84.79124258 -312.43359375 73.9765625 C-303.56662673 73.85383436 -303.56662673 73.85383436 -299.30859375 76.0390625 C-298.52226562 76.42191406 -297.7359375 76.80476563 -296.92578125 77.19921875 C-289.18003057 82.7232259 -285.90659326 90.67550634 -282.12109375 99.1640625 C-281.60353516 100.30037109 -281.08597656 101.43667969 -280.55273438 102.60742188 C-280.02228516 103.77466797 -279.49183594 104.94191406 -278.9453125 106.14453125 C-278.65766022 106.74551636 -278.37000793 107.34650146 -278.07363892 107.96569824 C-276.37430005 111.58322802 -275.0862697 115.09256387 -274.03857422 118.953125 C-271.96253073 125.78847705 -269.77003075 131.74933023 -263.62924194 135.84860229 C-255.82802856 139.80277164 -247.56169315 142.41697002 -239.22045898 144.96807861 C-235.81229201 146.02805 -232.43320279 147.1735676 -229.05078125 148.3125 C-223.11348238 150.30145948 -217.15598493 152.21519294 -211.1762085 154.07339478 C-208.54507399 154.93985105 -205.99285725 155.91832058 -203.43359375 156.9765625 C-208.06514686 144.44543419 -212.93981821 132.01736284 -217.87109375 119.6015625 C-220.38588622 113.26354926 -222.89724295 106.92419898 -225.40231323 100.58233643 C-226.42776244 97.99129669 -227.45907033 95.40263716 -228.49047852 92.81396484 C-229.12805578 91.20161159 -229.76535784 89.58914947 -230.40234375 87.9765625 C-230.69431137 87.24853424 -230.98627899 86.52050598 -231.28709412 85.77041626 C-234.44271954 77.74152475 -235.84663882 70.12024678 -232.43359375 61.9765625 C-226.52103213 49.92482541 -214.26583003 45.77857869 -202.69366455 40.42984009 C-198.90272655 38.67756441 -195.12001059 36.90766326 -191.3359375 35.140625 C-190.19614441 34.60931725 -190.19614441 34.60931725 -189.0333252 34.067276 C-182.17868701 30.86844792 -175.36499919 27.58935347 -168.55859375 24.2890625 C-158.26889865 19.30911145 -147.92321834 14.46017652 -137.5456543 9.66625977 C-129.24478399 5.82915937 -120.977186 1.92769858 -112.73876953 -2.04174805 C-111.94583496 -2.42242432 -111.15290039 -2.80310059 -110.3359375 -3.1953125 C-109.65007568 -3.5262793 -108.96421387 -3.85724609 -108.25756836 -4.19824219 C-102.09797027 -6.98494297 -95.00718369 -7.20971185 -88.59765625 -5.08203125 C-83.75046999 -2.76033093 -79.82692316 -0.20854377 -76.43359375 3.9765625 C-76.43359375 4.6365625 -76.43359375 5.2965625 -76.43359375 5.9765625 C-75.59699219 5.59322754 -74.76039063 5.20989258 -73.8984375 4.81494141 C-70.76235939 3.38191347 -67.62360818 1.95508423 -64.48291016 0.53222656 C-63.12991919 -0.08221251 -61.77800494 -0.69902872 -60.42724609 -1.31835938 C-39.98793854 -10.684487 -19.65643006 -13.44763046 0 0 Z M-52.43359375 27.9765625 C-53.81804687 28.64751953 -53.81804687 28.64751953 -55.23046875 29.33203125 C-56.97675909 30.18969512 -58.70806889 31.07785164 -60.43359375 31.9765625 C-59.11336956 35.42720959 -57.61152926 38.65896526 -55.8515625 41.90625 C-55.08223389 43.32804565 -55.08223389 43.32804565 -54.29736328 44.77856445 C-53.74419434 45.79265381 -53.19102539 46.80674316 -52.62109375 47.8515625 C-52.04214355 48.91656982 -51.46319336 49.98157715 -50.86669922 51.07885742 C-46.47147583 59.13716347 -41.98366995 67.14021821 -37.44970703 75.12109375 C-33.25490528 82.50734772 -29.11600428 89.9233033 -24.99609375 97.3515625 C-24.06579346 99.02448364 -24.06579346 99.02448364 -23.11669922 100.73120117 C-20.21635673 105.94843204 -17.32383102 111.16944993 -14.46250916 116.40817261 C-13.49368898 118.1796224 -12.52091317 119.94883447 -11.54663086 121.71728516 C-10.32766804 123.9315772 -9.11593684 126.14986951 -7.91235352 128.37255859 C-7.36764404 129.35820801 -6.82293457 130.34385742 -6.26171875 131.359375 C-5.78637695 132.22965332 -5.31103516 133.09993164 -4.82128906 133.99658203 C-3.51339897 136.28072842 -3.51339897 136.28072842 -0.43359375 136.9765625 C9.02802336 133.26207814 18.14035115 129.22734092 22.640625 119.703125 C25.49899582 112.05668153 24.30044065 105.27736721 21.29443359 97.82177734 C19.67992942 94.35917896 17.9840317 90.94463442 16.25390625 87.5390625 C15.30352086 85.63015497 14.35831872 83.71874168 13.41363525 81.80700684 C12.76612247 80.49679848 12.11714641 79.1873123 11.46673584 77.87854004 C8.06564274 71.01776921 4.88057409 64.0626208 1.69140625 57.1015625 C-6.35956572 36.41329455 -6.35956572 36.41329455 -21.80859375 21.875 C-33.01071901 18.04093927 -42.56974472 23.052867 -52.43359375 27.9765625 Z " fill="#000000" transform="translate(458.43359375,134.0234375)"/>
<path d="M0 0 C2.28610803 1.63105015 2.88379482 2.93964185 4.03125 5.44921875 C-11.57826904 13.07264366 -27.18799841 20.68504495 -42.96875 27.94921875 C-53.19843693 32.65878773 -63.34667084 37.51379532 -73.46875 42.44921875 C-84.25955277 47.70919721 -95.08085542 52.89295619 -105.96875 57.94921875 C-106.57823486 58.23297363 -107.18771973 58.51672852 -107.81567383 58.80908203 C-117.79210401 63.44921875 -117.79210401 63.44921875 -118.96875 63.44921875 C-119.46021799 56.14545839 -119.37631005 49.58003536 -114.96875 43.44921875 C-110.38317215 38.93119692 -105.52904173 35.89510294 -99.73828125 33.1640625 C-98.95819199 32.78591904 -98.17810272 32.40777557 -97.37437439 32.01817322 C-94.84824193 30.79717352 -92.31507068 29.59167135 -89.78125 28.38671875 C-88.02146579 27.54059161 -86.26202854 26.69374249 -84.50292969 25.84619141 C-72.08049995 19.87493146 -59.60190529 14.02496914 -47.078125 8.26953125 C-40.56699765 5.27588596 -34.09581486 2.2002462 -27.64746094 -0.92626953 C-17.54336003 -5.77316058 -9.99955813 -5.01560115 0 0 Z " fill="#000000" transform="translate(346.96875,115.55078125)"/>
<path d="M0 0 C1.4375 2.4375 1.4375 2.4375 1.375 6.0625 C0.4375 9.4375 0.4375 9.4375 -2.5625 11.4375 C-5.04216079 11.97618493 -7.43233933 12.40421045 -9.9375 12.75 C-10.5975 12.86150391 -11.2575 12.97300781 -11.9375 13.08789062 C-15.29454062 13.55934752 -17.34815218 13.53116942 -20.4765625 12.1640625 C-22.5625 10.4375 -22.5625 10.4375 -23.5625 7.5 C-23.5625 3.88193289 -23.01045015 3.01344754 -20.5625 0.4375 C-14.60841507 -1.80453553 -5.58917446 -3.40803321 0 0 Z " fill="#000000" transform="translate(77.5625,243.5625)"/>
<path d="M0 0 C5.89644541 1.81021933 11.77669341 4.38279194 15.05078125 9.73046875 C15.2083142 13.43249304 14.62814368 14.89917245 12.17578125 17.66796875 C8.67316607 19.02239728 7.25367684 18.69769322 3.6953125 17.33984375 C2.45224227 16.7136851 1.21661373 16.072566 -0.01171875 15.41796875 C-0.9543457 14.94810547 -0.9543457 14.94810547 -1.91601562 14.46875 C-5.14393467 12.80473184 -6.77323027 11.74445147 -8.82421875 8.66796875 C-8.63671875 5.10546875 -8.63671875 5.10546875 -7.82421875 1.66796875 C-4.6831702 -0.42606362 -3.61530979 -0.65803283 0 0 Z " fill="#000000" transform="translate(112.82421875,211.33203125)"/>
<path d="M0 0 C2.31282587 3.46923881 2.42478586 4.92205575 2 9 C-0.39459374 12.2925664 -3.52543374 13.07937283 -7.3125 14.25 C-8.97732422 14.78367187 -8.97732422 14.78367187 -10.67578125 15.328125 C-14.23156162 16.04680211 -16.52863849 16.02187265 -20 15 C-22.31282587 11.53076119 -22.42478586 10.07794425 -22 6 C-19.60540626 2.7074336 -16.47456626 1.92062717 -12.6875 0.75 C-11.57761719 0.39421875 -10.46773437 0.0384375 -9.32421875 -0.328125 C-5.76843838 -1.04680211 -3.47136151 -1.02187265 0 0 Z " fill="#000000" transform="translate(63,284)"/>
<path d="M0 0 C1.8828125 0.625 1.8828125 0.625 4.6953125 2.5 C5.8828125 5.9375 5.8828125 5.9375 5.6953125 9.5 C4.4453125 12 4.4453125 12 1.6953125 13.5 C-2.05506965 13.63222501 -5.61280706 13.12634661 -9.3046875 12.5 C-10.10519531 12.37238281 -10.90570313 12.24476563 -11.73046875 12.11328125 C-14.74285864 11.51300612 -16.82189223 11.06004251 -18.8671875 8.6875 C-19.42892319 5.87882156 -19.27494409 4.20285765 -18.3046875 1.5 C-13.23607565 -3.47496544 -6.36725652 -1.38137091 0 0 Z " fill="#000000" transform="translate(95.3046875,282.5)"/>
<path d="M0 0 C2 3 2 3 2.04296875 6.40625 C0.89774713 10.35233197 -0.2408631 11.49463938 -3.77148438 13.5078125 C-4.40376953 13.83523438 -5.03605469 14.16265625 -5.6875 14.5 C-6.60692383 15.03753906 -6.60692383 15.03753906 -7.54492188 15.5859375 C-10.66489914 17.2931573 -12.7604694 18.01123238 -16.33203125 17.84375 C-19 17 -19 17 -21 15 C-21.625 11.75 -21.625 11.75 -21 8 C-15.8273167 2.34278687 -7.64020463 -2.48750848 0 0 Z " fill="#000000" transform="translate(42,252)"/>
<path d="M0 0 C1.10988281 0.00386719 2.21976563 0.00773438 3.36328125 0.01171875 C7.72209778 0.40611226 11.3497702 1.14198643 14.6875 4.0625 C15.6875 6.3125 15.6875 6.3125 15.0625 9.4375 C13.6875 12.3125 13.6875 12.3125 10.6875 14.3125 C7.98059422 14.37329681 5.43844717 14.31514085 2.75 14.125 C2.03392578 14.09341797 1.31785156 14.06183594 0.58007812 14.02929688 C-3.5374195 13.76599072 -6.4612742 13.43422671 -9.3125 10.3125 C-10.04934211 4.41776316 -10.04934211 4.41776316 -8.1796875 1.61328125 C-5.44858945 -0.28934563 -3.29402009 -0.0493913 0 0 Z " fill="#000000" transform="translate(78.3125,203.6875)"/>
<path d="M0 0 C1.875 1.125 1.875 1.125 3 3 C3.5 5.875 3.5 5.875 3 9 C-0.59393929 13.63734102 -5.75891502 17.3655922 -11 20 C-14.375 20.1875 -14.375 20.1875 -17 19 C-19 16.75 -19 16.75 -20 14 C-18.8314707 9.50116219 -16.63522187 7.51868643 -13 4.75 C-12.113125 4.06421875 -11.22625 3.3784375 -10.3125 2.671875 C-6.66556944 0.03524277 -4.51876494 -0.36887877 0 0 Z " fill="#000000" transform="translate(29,298)"/>
<path d="M0 0 C3.39961847 1.51449169 5.51676722 2.95299565 7.125 6.4375 C7 9 7 9 5.4375 11.8125 C3 14 3 14 0.234375 14.24609375 C-3.15697447 13.98805629 -5.96056623 13.31337488 -9.1875 12.25 C-10.21230469 11.92515625 -11.23710938 11.6003125 -12.29296875 11.265625 C-15.25608283 9.88027296 -16.42589393 8.83988208 -18 6 C-18 2.9375 -18 2.9375 -17 0 C-11.28542786 -4.56350859 -6.36716462 -2.24571617 0 0 Z " fill="#000000" transform="translate(108,246)"/>
<path d="M0 0 C1.875 1.0625 1.875 1.0625 3 3 C3.4296875 6.28515625 3.4296875 6.28515625 3 10 C1.07541468 12.1969323 -0.46466134 13.66896811 -2.75 15.375 C-3.55824219 16.03048828 -3.55824219 16.03048828 -4.3828125 16.69921875 C-7.10551888 18.84418012 -9.47856571 20.71364161 -13 21 C-15.6875 19.9375 -15.6875 19.9375 -18 18 C-19.125 15.1875 -19.125 15.1875 -19 12 C-14.99226972 5.79448215 -7.9513146 -1.66422864 0 0 Z " fill="#000000" transform="translate(21,221)"/>
<path d="M0 0 C1.716047 3.12926217 1.55998049 5.45513658 1.0625 8.9375 C-3.0369223 12.76362748 -10.48941577 14.82382689 -16.0703125 15.0078125 C-17.9375 14.8125 -17.9375 14.8125 -20.9375 13.9375 C-22.9375 10.9375 -22.9375 10.9375 -23.125 7.5 C-21.9375 3.9375 -21.9375 3.9375 -20 2.62890625 C-14.15818621 0.00585499 -6.09098744 -3.34021892 0 0 Z " fill="#000000" transform="translate(55.9375,208.0625)"/>
<path d="M0 0 C2.875 0.5 2.875 0.5 4.6875 1.75 C6.08705 3.81249474 6.72764484 4.99496229 6.875 7.5 C5.22066354 11.06988395 3.4075157 13.68327764 -0.125 15.5 C-3.79793796 15.27962372 -5.49466546 15.13033454 -8.125 12.5 C-8.70355736 8.1194943 -8.6209561 6.18558638 -6 2.5625 C-3.125 0.5 -3.125 0.5 0 0 Z " fill="#000000" transform="translate(8.125,271.5)"/>
</svg>
